<svg width="24" height="24" viewBox="0 0 24 24" fill="none" xmlns="http://www.w3.org/2000/svg">
<g clip-path="url(#clip0_1036_2517)">
<path d="M12.0002 0.75C7.08769 0.75 2.9252 3.9 1.3877 8.25H22.6127C21.0752 3.9 16.9127 0.75 12.0002 0.75Z" fill="#428BC1"/>
<path d="M12.0002 23.25C16.9127 23.25 21.0752 20.1375 22.6127 15.75H1.3877C2.9252 20.1375 7.08769 23.25 12.0002 23.25Z" fill="#83BF4F"/>
<path d="M1.3875 8.25C0.975 9.4125 0.75 10.6875 0.75 12C0.75 13.3125 0.975 14.5875 1.3875 15.75H22.6125C23.025 14.5875 23.25 13.3125 23.25 12C23.25 10.6875 23.025 9.4125 22.6125 8.25H1.3875Z" fill="#ED4C5C"/>
<path d="M11.8498 15.0749C10.1623 15.0749 8.7748 13.6874 8.7748 11.9999C8.7748 10.3124 10.1623 8.9249 11.8498 8.9249C12.2623 8.9249 12.6373 8.9999 12.9748 9.1499C12.3748 8.6999 11.6248 8.3999 10.7998 8.3999C8.8123 8.3999 7.2373 10.0124 7.2373 11.9999C7.2373 13.9874 8.8498 15.5999 10.7998 15.5999C11.6248 15.5999 12.3748 15.3374 12.9748 14.8499C12.6373 14.9999 12.2623 15.0749 11.8498 15.0749ZM15.1498 12.5249L14.3248 13.0874L14.8498 12.2249L13.8748 11.9999L14.8498 11.7749L14.2873 10.9499L15.1498 11.4749L15.3748 10.4999L15.5998 11.4749L16.4248 10.9124L15.8998 11.7749L16.8748 11.9999L15.8998 12.2249L16.4623 13.0499L15.5998 12.5249L15.3748 13.4999L15.1498 12.5249Z" fill="white"/>
</g>
<defs>
<clipPath id="clip0_1036_2517">
<rect width="24" height="24" fill="white"/>
</clipPath>
</defs>
</svg>
