<svg width="150" height="101" viewBox="0 0 150 101" fill="none" xmlns="http://www.w3.org/2000/svg">
<g clip-path="url(#clip0_505_10870)">
<path d="M23.752 63.5903C23.7579 63.4872 23.784 63.3863 23.8289 63.2934C23.8738 63.2004 23.9365 63.1172 24.0136 63.0485C24.0906 62.9798 24.1804 62.927 24.2779 62.893C24.3753 62.859 24.4785 62.8445 24.5816 62.8504C24.6847 62.8563 24.7855 62.8824 24.8785 62.9273C24.9714 62.9722 25.0547 63.0349 25.1234 63.112C25.1921 63.189 25.2449 63.2788 25.2789 63.3763C25.3129 63.4737 25.3274 63.5769 25.3215 63.68C25.3096 63.8881 25.2155 64.083 25.0599 64.2217C24.9044 64.3605 24.7 64.4318 24.4919 64.4199C24.2838 64.408 24.0889 64.3139 23.9501 64.1583C23.8114 64.0027 23.7401 63.7984 23.752 63.5903ZM17.3151 62.7399C17.3586 62.6699 17.4157 62.6093 17.483 62.5616C17.5503 62.514 17.6265 62.4803 17.707 62.4626C17.7875 62.4448 17.8708 62.4434 17.9519 62.4583C18.033 62.4732 18.1102 62.5042 18.1792 62.5495C18.2481 62.5947 18.3073 62.6533 18.3532 62.7218C18.3991 62.7903 18.4309 62.8672 18.4466 62.9482C18.4624 63.0291 18.4617 63.1124 18.4448 63.1931C18.4278 63.2738 18.3949 63.3503 18.3479 63.418C18.2567 63.552 18.1165 63.6448 17.9575 63.6764C17.7985 63.708 17.6335 63.6758 17.498 63.5869C17.3625 63.4979 17.2674 63.3593 17.2331 63.2009C17.1988 63.0425 17.2285 62.8769 17.3151 62.7399ZM31.1213 62.4978C31.1937 62.4611 31.2727 62.4391 31.3536 62.4329C31.4346 62.4268 31.5159 62.4367 31.593 62.4621C31.6702 62.4875 31.7415 62.5278 31.803 62.5808C31.8644 62.6338 31.9149 62.6985 31.9513 62.771C32.0063 62.8801 32.0278 63.0031 32.0129 63.1245C31.9981 63.2458 31.9476 63.36 31.8678 63.4526C31.7881 63.5452 31.6827 63.6121 31.5649 63.6448C31.4471 63.6775 31.3223 63.6745 31.2062 63.6363C31.0901 63.598 30.988 63.5262 30.9127 63.4299C30.8374 63.3336 30.7924 63.2172 30.7833 63.0953C30.7742 62.9734 30.8015 62.8516 30.8617 62.7452C30.9218 62.6388 31.0122 62.5529 31.1213 62.4978ZM18.8071 59.4697C18.8745 59.3622 18.9626 59.2692 19.0664 59.1961C19.1701 59.1231 19.2874 59.0714 19.4114 59.0442C19.5353 59.0171 19.6634 59.0149 19.7882 59.0378C19.913 59.0608 20.032 59.1084 20.1382 59.1779C20.2444 59.2474 20.3356 59.3374 20.4066 59.4426C20.4776 59.5478 20.5268 59.666 20.5515 59.7905C20.5762 59.915 20.5758 60.0431 20.5504 60.1675C20.5249 60.2918 20.475 60.4098 20.4033 60.5145C20.2624 60.7207 20.0463 60.8634 19.8013 60.912C19.5564 60.9606 19.3021 60.9112 19.0932 60.7744C18.8842 60.6377 18.7372 60.4244 18.6838 60.1805C18.6303 59.9366 18.6746 59.6814 18.8071 59.4697ZM29.1834 59.1176C29.295 59.0607 29.4168 59.0263 29.5417 59.0165C29.6666 59.0067 29.7922 59.0216 29.9114 59.0604C30.0305 59.0992 30.1409 59.1611 30.2361 59.2426C30.3313 59.324 30.4095 59.4235 30.4662 59.5352C30.5515 59.7024 30.5856 59.891 30.5644 60.0775C30.5431 60.264 30.4674 60.4401 30.3466 60.5838C30.2259 60.7275 30.0655 60.8324 29.8854 60.8855C29.7054 60.9386 29.5137 60.9374 29.3343 60.8821C29.155 60.8269 28.9958 60.72 28.8768 60.5749C28.7578 60.4297 28.6842 60.2527 28.6653 60.066C28.6463 59.8792 28.6827 59.6911 28.7701 59.5249C28.8574 59.3588 28.9918 59.2221 29.1564 59.1318L29.1834 59.1176ZM23.5115 58.535C23.5759 58.4024 23.6659 58.2837 23.7762 58.1859C23.8865 58.088 24.0151 58.0128 24.1545 57.9646C24.2938 57.9164 24.4414 57.8961 24.5886 57.9049C24.7358 57.9137 24.8799 57.9514 25.0125 58.0158C25.1452 58.0803 25.2638 58.1703 25.3617 58.2806C25.4596 58.3909 25.5348 58.5194 25.583 58.6588C25.6312 58.7982 25.6515 58.9457 25.6427 59.093C25.6339 59.2402 25.5962 59.3842 25.5317 59.5169C25.4015 59.7848 25.1702 59.99 24.8887 60.0874C24.6072 60.1847 24.2986 60.1663 24.0307 60.0361C23.7628 59.9059 23.5576 59.6746 23.4602 59.3931C23.3628 59.1116 23.3813 58.8029 23.5115 58.535ZM13.5778 56.7966C13.7632 56.7038 13.9777 56.6881 14.1747 56.7527C14.3716 56.8173 14.535 56.9572 14.6294 57.1417C14.7237 57.3263 14.7413 57.5407 14.6783 57.7382C14.6153 57.9357 14.4769 58.1003 14.2931 58.1961C14.1093 58.292 13.8951 58.3114 13.6971 58.2501C13.4991 58.1888 13.3333 58.0517 13.2359 57.8688C13.1385 57.6858 13.1173 57.4718 13.1769 57.2732C13.2366 57.0747 13.3723 56.9078 13.5544 56.8089L13.5778 56.7966ZM34.6178 57.0201C34.732 56.8457 34.9109 56.7239 35.115 56.6814C35.3191 56.6389 35.5317 56.6792 35.706 56.7934C35.8804 56.9077 36.0022 57.0865 36.0447 57.2906C36.0872 57.4947 36.0469 57.7073 35.9327 57.8817C35.8761 57.968 35.8031 58.0424 35.7178 58.1005C35.6325 58.1586 35.5366 58.1993 35.4355 58.2204C35.3345 58.2414 35.2303 58.2424 35.1288 58.2232C35.0274 58.2039 34.9308 58.1649 34.8445 58.1083C34.7581 58.0518 34.6838 57.9787 34.6257 57.8934C34.5675 57.8081 34.5268 57.7122 34.5057 57.6112C34.4847 57.5101 34.4838 57.4059 34.503 57.3045C34.5222 57.2031 34.5612 57.1064 34.6178 57.0201ZM21.4397 53.5343C21.8138 53.3325 22.2444 53.2611 22.6636 53.3316C23.0828 53.4021 23.4664 53.6103 23.7539 53.9234C24.0414 54.2364 24.2162 54.6364 24.2508 55.0601C24.2853 55.4837 24.1776 55.9067 23.9447 56.2623C23.7714 56.5282 23.5343 56.7465 23.2549 56.8972C22.9756 57.048 22.663 57.1264 22.3456 57.1254C21.9206 57.125 21.5078 56.9829 21.1727 56.7215C20.8375 56.4602 20.5991 56.0945 20.4951 55.6824C20.3911 55.2703 20.4276 54.8353 20.5987 54.4462C20.7698 54.0572 21.0657 53.7363 21.4397 53.5343ZM26.2654 53.3906C26.6987 53.2511 27.1677 53.271 27.5877 53.4467C28.0078 53.6223 28.3512 53.9423 28.5562 54.3488C28.7827 54.8008 28.8209 55.3241 28.6624 55.8042C28.5039 56.2843 28.1616 56.682 27.7105 56.9103C27.4438 57.0454 27.1494 57.1169 26.8504 57.1192C26.3951 57.1193 25.9547 56.9567 25.6087 56.6608C25.2627 56.3648 25.0337 55.955 24.9631 55.5052C24.8925 55.0553 24.985 54.5951 25.2237 54.2074C25.4625 53.8197 25.8319 53.53 26.2654 53.3906ZM17.0674 54.4515C17.1634 54.3389 17.2807 54.2464 17.4125 54.1793C17.5443 54.1122 17.6881 54.0718 17.8356 54.0604C17.983 54.049 18.1313 54.0669 18.2719 54.113C18.4124 54.1591 18.5425 54.2325 18.6546 54.329C18.7667 54.4255 18.8586 54.5432 18.9251 54.6753C18.9916 54.8074 19.0314 54.9514 19.042 55.0989C19.0527 55.2465 19.0342 55.3947 18.9874 55.535C18.9407 55.6753 18.8667 55.8051 18.7697 55.9167C18.5749 56.1408 18.2993 56.2787 18.0031 56.3002C17.707 56.3217 17.4144 56.225 17.1893 56.0312C16.9643 55.8375 16.8251 55.5626 16.8023 55.2665C16.7794 54.9705 16.8748 54.6774 17.0674 54.4515ZM30.3388 54.5378C30.4197 54.4145 30.5241 54.3084 30.6461 54.2254C30.768 54.1425 30.9051 54.0844 31.0495 54.0544C31.194 54.0245 31.3429 54.0232 31.4877 54.0508C31.6326 54.0784 31.7707 54.1343 31.894 54.2152C32.1425 54.3791 32.316 54.6347 32.3765 54.9262C32.4369 55.2177 32.3794 55.5213 32.2166 55.7704C32.0531 56.0195 31.7974 56.1933 31.5058 56.2538C31.2141 56.3143 30.9104 56.2565 30.6614 56.0931C30.4124 55.9296 30.2385 55.6739 30.178 55.3823C30.1175 55.0906 30.1753 54.7869 30.3388 54.5378ZM18.1734 51.2154C18.1947 50.8445 18.3237 50.4879 18.5447 50.1892C18.7656 49.8905 19.0689 49.6627 19.4173 49.5337C19.7658 49.4047 20.1443 49.3802 20.5064 49.4631C20.8686 49.5459 21.1988 49.7326 21.4565 50.0003C21.7141 50.2679 21.8882 50.6049 21.9573 50.97C22.0263 51.335 21.9875 51.7123 21.8454 52.0556C21.7033 52.3989 21.4642 52.6933 21.1573 52.9028C20.8504 53.1122 20.4892 53.2277 20.1177 53.2349L20.0828 53.2352H19.9783C19.4778 53.2061 19.0086 52.9817 18.6718 52.6102C18.335 52.2388 18.1574 51.7501 18.1772 51.2491L18.1787 51.2144L18.1734 51.2154ZM27.185 51.194C27.2143 50.6882 27.4432 50.2146 27.8214 49.8775C28.1997 49.5404 28.6964 49.3673 29.2022 49.3962C29.4524 49.409 29.6976 49.4715 29.9233 49.5801C30.1491 49.6887 30.351 49.8412 30.5171 50.0287C30.7604 50.3011 30.9204 50.6375 30.9783 50.9981C31.0362 51.3587 30.9895 51.7283 30.8438 52.0632C30.6981 52.398 30.4594 52.6841 30.1561 52.8875C29.8528 53.0909 29.4975 53.203 29.1324 53.2107L29.0937 53.2112H28.9828C28.477 53.182 28.0034 52.9531 27.6663 52.5748C27.3292 52.1965 27.1561 51.6999 27.185 51.194ZM13.6291 51.2809C13.6343 51.1545 13.6646 51.0303 13.7182 50.9157C13.7718 50.8011 13.8477 50.6983 13.9415 50.6133C14.0352 50.5283 14.145 50.4628 14.2643 50.4206C14.3836 50.3784 14.5101 50.3604 14.6365 50.3675C14.7628 50.3747 14.8865 50.407 15.0003 50.4624C15.114 50.5179 15.2156 50.5954 15.2991 50.6905C15.3827 50.7855 15.4464 50.8963 15.4867 51.0162C15.527 51.1362 15.5431 51.263 15.5339 51.3892C15.5157 51.639 15.4001 51.8716 15.2119 52.0369C15.0238 52.2022 14.7782 52.2868 14.5282 52.2726C14.2781 52.2584 14.0437 52.1464 13.8755 51.9609C13.7073 51.7754 13.6188 51.5311 13.6291 51.2809ZM33.6464 51.2376C33.6536 51.1125 33.6853 50.9901 33.7398 50.8772C33.7943 50.7644 33.8704 50.6634 33.964 50.58C34.0575 50.4966 34.1665 50.4325 34.2848 50.3912C34.4031 50.35 34.5284 50.3324 34.6535 50.3396C34.7786 50.3468 34.901 50.3785 35.0138 50.433C35.1267 50.4875 35.2277 50.5636 35.311 50.6571C35.3944 50.7507 35.4586 50.8597 35.4998 50.978C35.5411 51.0963 35.5586 51.2216 35.5515 51.3467C35.537 51.5993 35.4229 51.8358 35.234 52.0043C35.0452 52.1727 34.7972 52.2592 34.5445 52.2448C34.2919 52.2304 34.0554 52.1162 33.8869 51.9273C33.7185 51.7385 33.632 51.4902 33.6464 51.2376ZM11.0331 50.7295L11.0561 50.7305C11.1371 50.7349 11.2164 50.7552 11.2896 50.7904C11.3627 50.8255 11.4282 50.8748 11.4822 50.9353C11.5362 50.9958 11.5778 51.0664 11.6044 51.1431C11.6311 51.2197 11.6424 51.3008 11.6376 51.3818C11.6306 51.5025 11.5882 51.6185 11.5158 51.7153C11.4434 51.8122 11.3442 51.8856 11.2304 51.9265C11.1166 51.9673 10.9933 51.9738 10.8758 51.9452C10.7583 51.9165 10.6519 51.854 10.5697 51.7653C10.4875 51.6766 10.4332 51.5657 10.4135 51.4464C10.3938 51.3271 10.4096 51.2047 10.459 51.0943C10.5084 50.9839 10.5891 50.8905 10.6911 50.8256C10.7931 50.7608 10.912 50.7273 11.0329 50.7295M38.1683 50.6658L38.1938 50.6668C38.3562 50.6766 38.5083 50.7502 38.6169 50.8714C38.7254 50.9927 38.7818 51.1519 38.7736 51.3145C38.7655 51.4771 38.6935 51.6299 38.5734 51.7397C38.4533 51.8495 38.2946 51.9075 38.132 51.9011C37.9693 51.8946 37.8158 51.8243 37.7047 51.7053C37.5937 51.5863 37.534 51.4283 37.5388 51.2656C37.5435 51.1029 37.6123 50.9486 37.7301 50.8363C37.8479 50.724 38.0055 50.6627 38.1683 50.6658ZM22.3288 45.5112C22.6823 45.5094 23.0293 45.6062 23.3308 45.7905C23.6324 45.9749 23.8768 46.2396 24.0364 46.5549C24.184 46.8463 24.2544 47.1707 24.2409 47.497C24.2274 47.8234 24.1305 48.1409 23.9595 48.4191C23.7884 48.6974 23.5489 48.9272 23.2638 49.0865C22.9787 49.2459 22.6575 49.3295 22.3309 49.3295C21.9766 49.3304 21.6292 49.2326 21.3276 49.0469C21.026 48.8612 20.7821 48.595 20.6235 48.2783C20.4777 47.9872 20.4087 47.6636 20.423 47.3384C20.4373 47.0131 20.5344 46.6968 20.7053 46.4197C20.8761 46.1425 21.1149 45.9135 21.399 45.7545C21.6832 45.5955 22.0032 45.5117 22.3288 45.5112ZM26.8349 45.4976C27.3415 45.4983 27.8271 45.7002 28.1849 46.0589C28.5426 46.4176 28.7432 46.9038 28.7425 47.4104C28.7419 47.917 28.54 48.4026 28.1812 48.7603C27.8225 49.1181 27.3364 49.3187 26.8298 49.318C26.579 49.3177 26.3306 49.2679 26.099 49.1716C25.8674 49.0753 25.657 48.9343 25.4799 48.7567C25.1221 48.398 24.9215 47.9119 24.9222 47.4053C24.9229 46.8987 25.1248 46.4131 25.4835 46.0553C25.8422 45.6976 26.3283 45.497 26.8349 45.4976ZM16.9629 46.8559C17.0429 46.7306 17.147 46.6224 17.2691 46.5376C17.3912 46.4528 17.5289 46.3932 17.6742 46.362C17.8196 46.3308 17.9696 46.3289 18.1157 46.3561C18.2619 46.3834 18.4011 46.4395 18.5254 46.521C18.6497 46.6025 18.7566 46.7079 18.8398 46.831C18.9231 46.9541 18.9811 47.0926 19.0105 47.2383C19.0398 47.384 19.04 47.5341 19.0109 47.6798C18.9818 47.8256 18.924 47.9642 18.841 48.0874C18.6769 48.3348 18.4216 48.5071 18.1308 48.5667C17.84 48.6264 17.5375 48.5684 17.2893 48.4056C17.0411 48.2429 16.8674 47.9884 16.8063 47.698C16.7451 47.4075 16.8015 47.1047 16.9629 46.8556M30.7574 46.439C30.8891 46.3725 31.0326 46.3327 31.1797 46.3217C31.3268 46.3108 31.4746 46.329 31.6147 46.3752C31.7548 46.4215 31.8844 46.4949 31.996 46.5913C32.1077 46.6876 32.1993 46.8051 32.2655 46.9369C32.3654 47.1353 32.4042 47.3588 32.3771 47.5793C32.3499 47.7997 32.258 48.0072 32.113 48.1754C31.9679 48.3436 31.7762 48.465 31.5622 48.5243C31.3481 48.5836 31.1213 48.578 30.9104 48.5084C30.6995 48.4388 30.5139 48.3081 30.3773 48.1331C30.2406 47.958 30.1589 47.7463 30.1425 47.5248C30.1262 47.3033 30.1758 47.0819 30.2853 46.8886C30.3947 46.6953 30.5591 46.5389 30.7574 46.439ZM13.2481 44.7449C13.3047 44.6586 13.3777 44.5842 13.463 44.5261C13.5483 44.468 13.6443 44.4273 13.7453 44.4063C13.8464 44.3853 13.9506 44.3844 14.052 44.4036C14.1534 44.4229 14.25 44.4619 14.3363 44.5185C14.4226 44.5751 14.497 44.6481 14.5551 44.7334C14.6132 44.8187 14.6539 44.9147 14.6749 45.0157C14.6959 45.1168 14.6969 45.221 14.6776 45.3224C14.6584 45.4238 14.6193 45.5204 14.5627 45.6067C14.4485 45.7811 14.2696 45.9029 14.0655 45.9454C13.8614 45.9879 13.6487 45.9475 13.4744 45.8333C13.3 45.719 13.1782 45.5401 13.1357 45.336C13.0932 45.1319 13.1336 44.9193 13.2478 44.7449M34.8938 44.4266C34.986 44.3802 35.0864 44.3524 35.1893 44.3448C35.2923 44.3372 35.3957 44.3499 35.4937 44.3823C35.5917 44.4147 35.6824 44.466 35.7606 44.5335C35.8387 44.6009 35.9028 44.683 35.9493 44.7752C35.9957 44.8674 36.0235 44.9678 36.0311 45.0708C36.0387 45.1737 36.0259 45.2771 35.9936 45.3752C35.9612 45.4732 35.9098 45.5638 35.8424 45.642C35.775 45.7202 35.6929 45.7843 35.6007 45.8307C35.4145 45.9244 35.1987 45.9404 35.0007 45.875C34.8028 45.8096 34.6389 45.6683 34.5452 45.4821C34.4514 45.2959 34.4355 45.0801 34.5009 44.8822C34.5662 44.6842 34.7076 44.5204 34.8938 44.4266ZM23.4506 43.5363C23.4676 43.2389 23.6021 42.9605 23.8245 42.7623C24.0468 42.5641 24.3388 42.4623 24.6361 42.4794C24.9335 42.4964 25.2119 42.6309 25.4101 42.8533C25.6083 43.0756 25.7101 43.3676 25.693 43.6649C25.676 43.9623 25.5415 44.2407 25.3191 44.4389C25.0968 44.6371 24.8048 44.7389 24.5074 44.7218C24.2101 44.7048 23.9317 44.5703 23.7335 44.3479C23.5353 44.1256 23.4335 43.8336 23.4506 43.5363ZM19.1369 41.8042C19.2489 41.7466 19.3712 41.7117 19.4968 41.7016C19.6223 41.6915 19.7486 41.7063 19.8684 41.7453C19.9882 41.7843 20.0991 41.8466 20.1947 41.9286C20.2903 42.0106 20.3687 42.1108 20.4254 42.2233C20.482 42.3358 20.5159 42.4584 20.5249 42.5841C20.534 42.7097 20.5181 42.8359 20.4781 42.9554C20.4381 43.0748 20.3749 43.1852 20.292 43.2801C20.2092 43.3749 20.1083 43.4525 19.9954 43.5082C19.7697 43.6195 19.5092 43.6372 19.2706 43.5573C19.0319 43.4775 18.8345 43.3066 18.7213 43.0818C18.6081 42.8571 18.5882 42.5968 18.666 42.3575C18.7439 42.1182 18.9131 41.9193 19.1369 41.8042ZM28.7739 42.1105C28.8419 42.0043 28.9303 41.9126 29.034 41.8408C29.1377 41.769 29.2546 41.7184 29.3779 41.6919C29.5012 41.6655 29.6286 41.6638 29.7526 41.6868C29.8766 41.7099 29.9948 41.7573 30.1004 41.8263C30.206 41.8953 30.2969 41.9845 30.3678 42.0888C30.4387 42.1931 30.4883 42.3104 30.5136 42.434C30.539 42.5576 30.5396 42.6849 30.5154 42.8087C30.4913 42.9325 30.4428 43.0503 30.3729 43.1553C30.2333 43.3649 30.0165 43.5109 29.7698 43.5614C29.5231 43.612 29.2664 43.5631 29.0556 43.4254C28.8448 43.2876 28.6969 43.0722 28.6441 42.8259C28.5914 42.5797 28.638 42.3225 28.7739 42.1105ZM17.4973 39.0271C17.5699 38.9888 17.6495 38.9653 17.7313 38.9581C17.8131 38.9509 17.8955 38.96 17.9737 38.985C18.0519 39.01 18.1244 39.0503 18.1869 39.1036C18.2493 39.1569 18.3005 39.2221 18.3375 39.2954C18.3745 39.3688 18.3964 39.4487 18.4022 39.5306C18.4079 39.6126 18.3972 39.6948 18.3708 39.7725C18.3443 39.8503 18.3027 39.922 18.2482 39.9835C18.1938 40.0449 18.1276 40.0949 18.0536 40.1305C17.9077 40.2007 17.7401 40.2108 17.5868 40.1587C17.4335 40.1066 17.3068 39.9964 17.2339 39.8518C17.161 39.7073 17.1478 39.5399 17.197 39.3856C17.2463 39.2314 17.3541 39.1027 17.4973 39.0271ZM30.8316 39.2091C30.8752 39.1394 30.9323 39.0792 30.9994 39.0319C31.0666 38.9846 31.1425 38.9512 31.2228 38.9336C31.303 38.916 31.3859 38.9145 31.4667 38.9294C31.5475 38.9442 31.6246 38.975 31.6933 39.0199C31.7621 39.0649 31.8212 39.1231 31.8672 39.1911C31.9132 39.2592 31.9452 39.3357 31.9612 39.4163C31.9773 39.4968 31.9772 39.5798 31.9608 39.6603C31.9444 39.7408 31.9122 39.8172 31.8659 39.8851C31.7759 40.0215 31.6356 40.1167 31.4756 40.1498C31.3156 40.183 31.1489 40.1514 31.0121 40.062C30.8754 39.9726 30.7795 39.8327 30.7457 39.6729C30.7118 39.513 30.7426 39.3462 30.8313 39.2091M24.303 38.2491C24.4997 38.1803 24.7158 38.1925 24.9036 38.283C25.0913 38.3735 25.2355 38.5349 25.3043 38.7316C25.3731 38.9284 25.3609 39.1444 25.2704 39.3322C25.1799 39.52 25.0185 39.6642 24.8218 39.733C24.625 39.8018 24.409 39.7896 24.2212 39.6991C24.0334 39.6086 23.8892 39.4472 23.8204 39.2505C23.7516 39.0537 23.7638 38.8376 23.8543 38.6499C23.9448 38.4621 24.1062 38.3179 24.303 38.2491ZM134.475 44.8025C138.452 44.8025 140.876 46.9109 140.876 51.3688C140.876 55.827 138.456 57.9354 134.475 57.9354C130.494 57.9354 128.094 55.827 128.094 51.3688C128.094 46.9107 130.498 44.8025 134.475 44.8025ZM50.2246 44.7984C53.3559 44.7984 55.7798 46.3615 55.8282 49.6052L55.8287 49.7041H53.4061C53.4061 47.8171 52.1108 46.8003 50.2616 46.8003C47.7337 46.8003 46.5309 48.25 46.5054 51.0944L46.5049 51.181V51.5505C46.5049 54.5096 47.6906 55.9343 50.2623 55.9343C52.2021 55.9343 53.4724 54.9369 53.4976 53.1223L53.4981 53.0672H55.8287C55.8287 56.379 53.425 57.9321 50.2249 57.9321C46.3398 57.9321 44.0833 55.9343 44.0833 51.3658C44.0833 46.9079 46.3398 44.7984 50.2246 44.7984ZM65.2135 45.0239L70.1556 57.7143H67.603L66.5592 54.9575H60.7548L59.738 57.714H57.2955L62.2348 45.0237L65.2135 45.0239ZM79.2197 45.0239C82.0129 45.0239 83.3637 46.5228 83.3637 48.8713C83.3637 50.574 82.6209 51.8232 81.1544 52.4228L81.107 52.4419L83.8209 57.7143H81.2311L78.8306 52.8083H74.891V57.714H72.5226V45.0237L79.2197 45.0239ZM91.67 45.0239C95.4985 45.0239 97.8261 47.0218 97.8261 51.3691C97.8261 55.6728 95.5429 57.6737 91.7824 57.7135L91.6677 57.714H86.5992V45.0237L91.67 45.0239ZM107.006 45.0239L111.945 57.7143H109.392L108.357 54.9575H102.548L101.53 57.714H99.0893L104.03 45.0237L107.006 45.0239ZM116.576 45.0239L122.089 52.5902L122.108 52.619L122.15 52.6827L122.194 52.7523L122.241 52.8269L122.338 52.9854L122.645 53.4961L122.688 53.5667L122.701 53.5868L122.715 53.6067L122.807 53.5703L122.805 53.5124L122.798 53.3356L122.782 52.9589L122.774 52.7566L122.772 52.6682L122.77 52.593V52.5714H122.768V45.0239H125.043V57.7143H122.823L117.274 50.0746C117.234 50.0169 117.195 49.9587 117.158 49.8998L117.12 49.8401L117.083 49.7808L117.028 49.6916L116.959 49.5756L116.926 49.5193L116.849 49.3858L116.697 49.1182L116.667 49.0685L116.656 49.0507L116.648 49.0379L116.555 49.0935L116.556 49.1457L116.579 49.6511L116.586 49.8131L116.59 49.9507L116.591 50.0348L116.592 50.0743V57.714H114.317V45.0237L116.576 45.0239ZM134.475 46.8003C131.949 46.8003 130.545 48.25 130.518 51.0974L130.517 51.1841V51.5724C130.517 54.4762 131.904 55.9376 134.475 55.9376C137.039 55.9376 138.424 54.5055 138.451 51.6591L138.452 51.5724V51.1841C138.452 48.2793 137.047 46.8003 134.475 46.8003M91.6695 47.0404H88.9694V55.6976H91.6697C94.0506 55.6976 95.3612 54.3564 95.4055 51.6364L95.4065 51.5536V51.1841C95.4065 48.4376 94.097 47.0679 91.7414 47.0406L91.6695 47.0404ZM63.6955 47.0549H63.6037L63.5749 47.1385L63.2067 48.2661L63.0979 48.5945L63.0006 48.8833L62.9623 48.9941L62.8892 49.2038L62.8545 49.3014L62.8212 49.3929L61.4943 52.9564L65.8039 52.9554L64.5096 49.4775L64.4949 49.439L64.4638 49.3567L64.4314 49.2686L64.3804 49.1259L64.3269 48.9735L64.2724 48.8134L64.2163 48.6478L64.1228 48.3655L63.7365 47.1759L63.6993 47.0658L63.6955 47.0549ZM105.492 47.0549H105.397L105.369 47.1385L105 48.2661L104.892 48.5945L104.794 48.8833L104.756 48.9941L104.683 49.2038L104.648 49.3014L104.615 49.3929L103.29 52.9564L107.6 52.9554L106.305 49.4775L106.275 49.3985L106.244 49.3134L106.194 49.1748L106.141 49.0255L106.068 48.8134L105.993 48.5917L105.918 48.3655L105.799 48.0016L105.52 47.1387L105.492 47.0549ZM79.0337 47.0404H74.891V50.8138H79.0337C80.2551 50.8138 80.9762 50.0748 80.9762 48.8715C80.9762 47.7381 80.3252 47.0559 79.076 47.0409L79.0337 47.0404Z" fill="#F0F0F0"/>
</g>
<defs>
<clipPath id="clip0_505_10870">
<rect width="130.471" height="26.2471" fill="white" transform="translate(10.4033 38.2051)"/>
</clipPath>
</defs>
</svg>
