<svg width="39" height="38" viewBox="0 0 39 38" fill="none" xmlns="http://www.w3.org/2000/svg">
<path fill-rule="evenodd" clip-rule="evenodd" d="M0.983826 18.9685L2.99682 16.9555L3.90025 17.859L2.79068 18.9685L3.90025 20.0781L2.99682 20.9815L0.983826 18.9685ZM5.23555 16.091L5.68743 14.2649L4.54847 15.4039L5.23555 16.091ZM9.69984 10.2525H11.5067L19.9211 1.83811L28.3354 10.2524L30.1423 10.2525L19.9211 0.03125L9.69984 10.2525ZM28.3162 27.7039L19.9211 36.0989L11.7458 27.9236H9.93892L19.9211 37.9058L30.123 27.7039L28.3162 27.7039ZM34.1328 23.6941L34.5927 21.8321L35.2937 22.5332L34.1328 23.6941ZM37.0515 18.9685L35.9468 17.8638L36.8502 16.9603L38.8584 18.9685L36.8502 20.9767L35.9468 20.0733L37.0515 18.9685Z" fill="#FFB600"/>
<path fill-rule="evenodd" clip-rule="evenodd" d="M21.3319 26.4275L19.3856 25.2208L21.5313 16.5329H30.5232L30.6717 15.8277L32.9004 14.5222H9.09385L10.6472 15.8277L8.82777 23.1946L11.2612 22.0529H14.1033L14.7869 19.389H11.9444L12.3895 17.6642L14.6892 16.5329H19.526L17.3803 25.2208L14.9366 26.4275H6.15352L4.34033 25.0268L7.33806 12.8891L6.00126 11.5314H20.7779L22.4313 12.8891L22.7666 11.5312L34.1247 11.5314L35.4891 12.8891L34.5568 16.6642L32.61 17.6642L34.0482 18.7093L32.142 26.4274L21.3319 26.4275ZM26.3699 22.0529L24.016 23.1946L24.9429 19.389H29.8956L29.212 22.0529H26.3699Z" fill="#F0F0F0"/>
</svg>
