<svg width="115" height="39" viewBox="0 0 115 39" fill="none" xmlns="http://www.w3.org/2000/svg">
<path d="M43.1738 19.4865C43.3612 18.4036 43.7621 17.4404 44.3765 16.5969C44.9909 15.7431 45.7614 15.0818 46.6882 14.6133C47.6149 14.1343 48.6302 13.8948 49.734 13.8948C51.1189 13.8948 52.2019 14.228 52.9829 14.8944C53.7742 15.5608 54.1804 16.472 54.2012 17.6278H50.9055C50.7909 17.3363 50.5931 17.1124 50.3119 16.9562C50.0308 16.8 49.6767 16.7219 49.2498 16.7219C48.4896 16.7219 47.8388 16.9718 47.2973 17.4716C46.7663 17.9715 46.4279 18.6431 46.2821 19.4865C46.23 19.7989 46.204 20.0593 46.204 20.2675C46.204 20.9652 46.4018 21.4963 46.7975 21.8607C47.1932 22.2148 47.7763 22.3918 48.5469 22.3918C49.6195 22.3918 50.4733 21.9076 51.1085 20.9392H48.0315L48.422 18.7368H54.1387L53.6076 21.7045C53.0662 22.6313 52.2904 23.4279 51.2803 24.0943C50.2703 24.7607 49.104 25.094 47.7816 25.094C46.8027 25.094 45.9593 24.9117 45.2512 24.5473C44.5431 24.1724 44.0016 23.6518 43.6268 22.9853C43.2519 22.3189 43.0645 21.5483 43.0645 20.6736C43.0645 20.2571 43.1009 19.8614 43.1738 19.4865Z" fill="#F0F0F0"/>
<path d="M59.478 25.1252C58.5513 25.1252 57.7338 24.9326 57.0258 24.5473C56.3177 24.162 55.771 23.6205 55.3857 22.9228C55.0004 22.2252 54.8078 21.4234 54.8078 20.5174C54.8078 19.2158 55.0785 18.06 55.62 17.0499C56.1719 16.0294 56.9372 15.238 57.9161 14.6757C58.9053 14.1134 60.0351 13.8323 61.3055 13.8323C62.2531 13.8323 63.0809 14.0249 63.789 14.4102C64.5075 14.7851 65.0594 15.3213 65.4447 16.019C65.83 16.7063 66.0226 17.5029 66.0226 18.4088C66.0226 19.7 65.7467 20.8559 65.1948 21.8763C64.6429 22.8968 63.8723 23.6934 62.8831 24.2661C61.8938 24.8388 60.7588 25.1252 59.478 25.1252ZM59.9466 22.2824C60.561 22.2824 61.0972 22.121 61.5554 21.7982C62.024 21.4754 62.378 21.0485 62.6175 20.5174C62.8675 19.976 62.9924 19.3928 62.9924 18.768C62.9924 18.1016 62.8102 17.5862 62.4457 17.2217C62.0917 16.8468 61.5814 16.6594 60.915 16.6594C60.3006 16.6594 59.7592 16.8208 59.2906 17.1436C58.822 17.456 58.4627 17.8777 58.2128 18.4088C57.9629 18.9399 57.838 19.523 57.838 20.1582C57.838 20.8142 58.0202 21.3349 58.3847 21.7201C58.7491 22.095 59.2698 22.2824 59.9466 22.2824Z" fill="#F0F0F0"/>
<path d="M69.4434 22.6885H72.8641L72.4423 25.0159H65.9446L67.897 14.0041H70.9585L69.4434 22.6885Z" fill="#F0F0F0"/>
<path d="M79.9602 14.0041C80.9703 14.0041 81.845 14.1863 82.5843 14.5508C83.3236 14.9048 83.8859 15.4098 84.2712 16.0659C84.6565 16.7219 84.8491 17.4872 84.8491 18.3619C84.8491 18.7576 84.8127 19.1377 84.7398 19.5022C84.5524 20.5643 84.1463 21.5119 83.5215 22.3449C82.9071 23.178 82.1209 23.834 81.1629 24.313C80.2153 24.7816 79.1636 25.0159 78.0078 25.0159H73.6499L75.6024 14.0041H79.9602ZM78.2577 22.3293C79.1532 22.3293 79.8977 22.0846 80.4913 21.5952C81.0848 21.0954 81.4649 20.3977 81.6315 19.5022C81.6732 19.2939 81.694 19.07 81.694 18.8305C81.694 18.1329 81.4805 17.5966 81.0536 17.2217C80.6267 16.8468 80.0279 16.6594 79.2574 16.6594H78.2108L77.1956 22.3293H78.2577Z" fill="#F0F0F0"/>
<path d="M94.8511 16.8625C94.7366 17.5081 94.4659 18.0495 94.0389 18.4869C93.6224 18.9138 93.1226 19.2054 92.5394 19.3616C93.0705 19.4865 93.4818 19.7417 93.7734 20.1269C94.0754 20.5122 94.2263 20.9704 94.2263 21.5015C94.2263 21.6681 94.2107 21.8399 94.1795 22.0169C94.0233 22.9541 93.5755 23.6882 92.8362 24.2193C92.0969 24.7503 91.1389 25.0159 89.9622 25.0159H84.511L86.4634 14.0041H91.7428C92.7425 14.0041 93.5183 14.2071 94.0702 14.6133C94.622 15.0089 94.898 15.5765 94.898 16.3158C94.898 16.4928 94.8824 16.675 94.8511 16.8625ZM91.6179 17.4248C91.6283 17.3727 91.6335 17.2946 91.6335 17.1905C91.6335 16.6906 91.3055 16.4407 90.6495 16.4407H89.1031L88.7595 18.3932H90.3059C91.066 18.3932 91.5033 18.0704 91.6179 17.4248ZM91.1337 21.5796C91.1441 21.5275 91.1493 21.4546 91.1493 21.3609C91.1493 21.1006 91.0608 20.9027 90.8838 20.7673C90.7172 20.6216 90.4673 20.5487 90.134 20.5487H88.369L88.0254 22.5636H89.806C90.5662 22.5636 91.0087 22.2356 91.1337 21.5796Z" fill="#F0F0F0"/>
<path d="M99.0356 16.4251L98.7232 18.2526H102.238L101.816 20.5799H98.3015L97.9422 22.5792H101.925L101.503 25.0159H94.4434L96.3959 14.0041H103.44L103.019 16.4251H99.0356Z" fill="#F0F0F0"/>
<path d="M113.325 14.0041L112.888 16.4407H109.967L108.452 25.0159H105.375L106.89 16.4407H103.985L104.422 14.0041H113.325Z" fill="#F0F0F0"/>
<path fill-rule="evenodd" clip-rule="evenodd" d="M1.98364 18.9694L3.99663 16.9564L4.90006 17.8598L3.7905 18.9694L4.90006 20.0789L3.99663 20.9824L1.98364 18.9694ZM6.23537 16.0918L6.68725 14.2658L5.54829 15.4047L6.23537 16.0918ZM10.6997 10.2534H12.5065L20.9209 1.83896L29.3353 10.2533L31.1421 10.2533L20.9209 0.0321045L10.6997 10.2534ZM29.316 27.7047L20.9209 36.0998L12.7456 27.9245H10.9387L20.9209 37.9066L31.1228 27.7047L29.316 27.7047ZM35.1326 23.6949L35.5925 21.833L36.2935 22.534L35.1326 23.6949ZM38.0513 18.9694L36.9466 17.8646L37.85 16.9612L39.8582 18.9694L37.85 20.9776L36.9466 20.0741L38.0513 18.9694Z" fill="#FFB600"/>
<path fill-rule="evenodd" clip-rule="evenodd" d="M22.3317 26.4271L20.3854 25.2204L22.5311 16.5326H31.523L31.6715 15.8273L33.9002 14.5218H10.0936L11.647 15.8273L9.82753 23.1942L12.2609 22.0525H15.103L15.7866 19.3886H12.9442L13.3892 17.6638L15.689 16.5326H20.5258L18.3801 25.2204L15.9364 26.4271H7.15327L5.34009 25.0264L8.33782 12.8887L7.00102 11.531H21.7777L23.431 12.8887L23.7664 11.5309L35.1244 11.531L36.4889 12.8887L35.5565 16.6638L33.6098 17.6638L35.048 18.709L33.1418 26.4271L22.3317 26.4271ZM27.3697 22.0525L25.0157 23.1942L25.9427 19.3886H30.8954L30.2118 22.0525H27.3697Z" fill="#F0F0F0"/>
</svg>
